<mxfile host="app.diagrams.net" modified="2023-07-19T15:00:41.407Z" agent="Mozilla/5.0 (X11; Ubuntu; Linux x86_64; rv:109.0) Gecko/20100101 Firefox/115.0" etag="1GMmfz07YVQA62A-5sr-" version="21.6.3" type="device">
  <diagram id="C5RBs43oDa-KdzZeNtuy" name="Page-1">
    <mxGraphModel dx="1372" dy="795" grid="1" gridSize="10" guides="1" tooltips="1" connect="1" arrows="1" fold="1" page="1" pageScale="1" pageWidth="827" pageHeight="1169" math="0" shadow="0">
      <root>
        <mxCell id="WIyWlLk6GJQsqaUBKTNV-0" />
        <mxCell id="WIyWlLk6GJQsqaUBKTNV-1" parent="WIyWlLk6GJQsqaUBKTNV-0" />
        <mxCell id="c2My8j1zMIpxn0Pv0VPL-7" style="edgeStyle=orthogonalEdgeStyle;rounded=0;orthogonalLoop=1;jettySize=auto;html=1;" edge="1" parent="WIyWlLk6GJQsqaUBKTNV-1" source="c2My8j1zMIpxn0Pv0VPL-5" target="c2My8j1zMIpxn0Pv0VPL-6">
          <mxGeometry relative="1" as="geometry" />
        </mxCell>
        <mxCell id="c2My8j1zMIpxn0Pv0VPL-5" value="descarga de miRTarBase" style="rounded=1;whiteSpace=wrap;html=1;" vertex="1" parent="WIyWlLk6GJQsqaUBKTNV-1">
          <mxGeometry x="40" y="40" width="120" height="60" as="geometry" />
        </mxCell>
        <mxCell id="c2My8j1zMIpxn0Pv0VPL-15" value="" style="edgeStyle=orthogonalEdgeStyle;rounded=0;orthogonalLoop=1;jettySize=auto;html=1;" edge="1" parent="WIyWlLk6GJQsqaUBKTNV-1" source="c2My8j1zMIpxn0Pv0VPL-6" target="c2My8j1zMIpxn0Pv0VPL-8">
          <mxGeometry relative="1" as="geometry" />
        </mxCell>
        <mxCell id="c2My8j1zMIpxn0Pv0VPL-6" value="análisis de la estructura" style="rounded=1;whiteSpace=wrap;html=1;" vertex="1" parent="WIyWlLk6GJQsqaUBKTNV-1">
          <mxGeometry x="40" y="140" width="120" height="60" as="geometry" />
        </mxCell>
        <mxCell id="c2My8j1zMIpxn0Pv0VPL-16" value="" style="edgeStyle=orthogonalEdgeStyle;rounded=0;orthogonalLoop=1;jettySize=auto;html=1;" edge="1" parent="WIyWlLk6GJQsqaUBKTNV-1" source="c2My8j1zMIpxn0Pv0VPL-8" target="c2My8j1zMIpxn0Pv0VPL-10">
          <mxGeometry relative="1" as="geometry" />
        </mxCell>
        <mxCell id="c2My8j1zMIpxn0Pv0VPL-8" value="diseño de estrutura nueva" style="rounded=1;whiteSpace=wrap;html=1;" vertex="1" parent="WIyWlLk6GJQsqaUBKTNV-1">
          <mxGeometry x="200" y="140" width="120" height="60" as="geometry" />
        </mxCell>
        <mxCell id="c2My8j1zMIpxn0Pv0VPL-9" value="importación a MongoDB" style="rounded=1;whiteSpace=wrap;html=1;" vertex="1" parent="WIyWlLk6GJQsqaUBKTNV-1">
          <mxGeometry x="520" y="140" width="120" height="60" as="geometry" />
        </mxCell>
        <mxCell id="c2My8j1zMIpxn0Pv0VPL-18" value="" style="edgeStyle=orthogonalEdgeStyle;rounded=0;orthogonalLoop=1;jettySize=auto;html=1;" edge="1" parent="WIyWlLk6GJQsqaUBKTNV-1" source="c2My8j1zMIpxn0Pv0VPL-10" target="c2My8j1zMIpxn0Pv0VPL-11">
          <mxGeometry relative="1" as="geometry" />
        </mxCell>
        <mxCell id="c2My8j1zMIpxn0Pv0VPL-10" value="conversión de los datos" style="rounded=1;whiteSpace=wrap;html=1;" vertex="1" parent="WIyWlLk6GJQsqaUBKTNV-1">
          <mxGeometry x="360" y="140" width="120" height="60" as="geometry" />
        </mxCell>
        <mxCell id="c2My8j1zMIpxn0Pv0VPL-19" value="" style="edgeStyle=orthogonalEdgeStyle;rounded=0;orthogonalLoop=1;jettySize=auto;html=1;" edge="1" parent="WIyWlLk6GJQsqaUBKTNV-1" source="c2My8j1zMIpxn0Pv0VPL-11" target="c2My8j1zMIpxn0Pv0VPL-13">
          <mxGeometry relative="1" as="geometry" />
        </mxCell>
        <mxCell id="c2My8j1zMIpxn0Pv0VPL-21" value="" style="edgeStyle=orthogonalEdgeStyle;rounded=0;orthogonalLoop=1;jettySize=auto;html=1;" edge="1" parent="WIyWlLk6GJQsqaUBKTNV-1" source="c2My8j1zMIpxn0Pv0VPL-11" target="c2My8j1zMIpxn0Pv0VPL-14">
          <mxGeometry relative="1" as="geometry" />
        </mxCell>
        <mxCell id="c2My8j1zMIpxn0Pv0VPL-11" value="hay errores o incoherencias?" style="rhombus;whiteSpace=wrap;html=1;" vertex="1" parent="WIyWlLk6GJQsqaUBKTNV-1">
          <mxGeometry x="360" y="40" width="120" height="60" as="geometry" />
        </mxCell>
        <mxCell id="c2My8j1zMIpxn0Pv0VPL-20" value="" style="edgeStyle=orthogonalEdgeStyle;rounded=0;orthogonalLoop=1;jettySize=auto;html=1;" edge="1" parent="WIyWlLk6GJQsqaUBKTNV-1" source="c2My8j1zMIpxn0Pv0VPL-13" target="c2My8j1zMIpxn0Pv0VPL-8">
          <mxGeometry relative="1" as="geometry" />
        </mxCell>
        <mxCell id="c2My8j1zMIpxn0Pv0VPL-13" value="sí" style="ellipse;whiteSpace=wrap;html=1;aspect=fixed;" vertex="1" parent="WIyWlLk6GJQsqaUBKTNV-1">
          <mxGeometry x="240" y="50" width="40" height="40" as="geometry" />
        </mxCell>
        <mxCell id="c2My8j1zMIpxn0Pv0VPL-22" value="" style="edgeStyle=orthogonalEdgeStyle;rounded=0;orthogonalLoop=1;jettySize=auto;html=1;" edge="1" parent="WIyWlLk6GJQsqaUBKTNV-1" source="c2My8j1zMIpxn0Pv0VPL-14" target="c2My8j1zMIpxn0Pv0VPL-9">
          <mxGeometry relative="1" as="geometry" />
        </mxCell>
        <mxCell id="c2My8j1zMIpxn0Pv0VPL-14" value="no" style="ellipse;whiteSpace=wrap;html=1;aspect=fixed;" vertex="1" parent="WIyWlLk6GJQsqaUBKTNV-1">
          <mxGeometry x="560" y="50" width="40" height="40" as="geometry" />
        </mxCell>
      </root>
    </mxGraphModel>
  </diagram>
</mxfile>
